<svg width="973" height="229" viewBox="0 0 973 229" fill="none" xmlns="http://www.w3.org/2000/svg">
<path d="M380.234 55.8569C381.914 55.8569 383.593 57.1264 383.593 59.2422V96.057V99.442H386.953H419.7C421.8 99.442 423.058 101.135 423.058 102.828V116.369C423.058 118.062 421.8 119.754 419.7 119.754H386.953H383.593V123.139V187.883C383.593 199.308 387.792 204.386 397.448 204.386C405.846 204.386 416.341 199.308 418.44 198.462C419.7 198.038 420.96 198.038 421.8 199.731L427.677 214.542C428.097 215.811 427.257 217.08 426.418 217.504H425.998C423.479 219.197 404.586 226.814 389.471 226.814C368.479 226.814 359.662 216.235 359.662 191.268V123.562V120.177H356.303H341.609C339.93 120.177 338.25 118.485 338.25 116.792V103.251C338.25 101.558 339.93 99.8654 341.609 99.8654H356.303H359.662V96.4803V59.6653C359.662 57.5496 361.341 56.2801 363.021 56.2801H381.074" fill="white"/>
<path d="M276.955 99.4429C289.131 99.4429 308.024 105.367 321.458 119.331C322.718 121.024 322.298 123.14 321.039 124.409L319.779 125.678L310.123 134.565C308.863 135.834 306.764 135.834 305.504 134.565L305.085 134.141C297.527 126.102 287.031 121.87 276.955 121.87C255.963 121.87 235.39 140.066 235.39 163.762C235.39 187.883 253.864 206.502 276.535 206.502C292.489 206.502 300.466 198.885 306.764 192.961C307.603 192.114 308.024 191.692 308.863 190.845C310.123 189.575 312.221 189.575 313.481 190.845L324.397 199.731C326.077 201.424 325.657 203.54 325.236 204.386C315.16 217.504 296.687 228.083 276.535 228.083C241.268 228.083 212.298 199.309 212.298 164.186C212.298 129.064 241.688 99.4429 276.955 99.4429Z" fill="white"/>
<path d="M111.534 5.50107L203.9 220.043C204.74 221.735 204.74 223.851 203.9 225.121C203.061 226.39 201.381 227.236 199.282 227.236H179.549C176.61 227.236 174.092 225.967 172.832 223.005L154.778 181.535L153.519 178.573H150.58H54.0158H50.6571L49.3976 181.535C46.4586 187.883 43.9395 194.23 41.0007 201.001V201.424C38.0617 208.618 34.703 216.235 31.3442 223.428C31.3442 223.851 29.245 227.66 24.6268 227.66H4.89406C2.79484 227.66 1.11546 226.814 0.275778 225.544C-0.144067 223.851 -0.144069 222.159 0.695619 220.466L93.4811 5.92423C94.3209 4.23159 96.4201 0.423164 102.718 0.423164C109.435 7.38849e-08 111.534 5.50107 111.534 5.50107ZM61.9929 152.337H69.5501H134.626H142.183L139.245 145.144L106.496 69.8213L101.878 59.6654L97.6796 69.8213L65.3516 145.144L61.9929 152.337ZM96.0002 4.23159C96.84 2.53895 99.3586 0 103.138 0C107.336 0 109.435 4.23159 109.435 4.23159" fill="white"/>
<path d="M572.104 99.0195C617.028 99.0195 623.746 136.258 623.746 158.262V223.852C623.746 225.968 622.066 227.66 620.387 227.66H602.754C600.654 227.66 599.395 225.544 599.395 223.852V156.992C599.395 134.565 588.058 121.024 568.746 121.024C546.494 121.024 530.959 137.103 528.861 143.028V143.451V143.875V223.852C528.861 225.544 527.181 227.66 525.502 227.66H508.288C506.189 227.66 504.93 225.544 504.93 223.852V105.791C504.93 103.674 506.609 102.405 508.288 102.405H517.105C518.364 102.405 519.204 103.251 519.204 104.098L522.982 115.523L525.082 121.024L528.861 116.792C528.441 116.369 545.234 99.0195 572.104 99.0195Z" fill="white"/>
<path d="M752.637 99.8662C754.316 99.8662 755.576 101.559 754.735 103.252L699.317 223.852C696.797 229.353 688.401 229.353 686.301 223.852L630.881 103.674C630.042 101.982 631.302 100.29 632.981 100.29H651.874C653.554 100.29 654.393 101.136 654.812 102.405L693.019 184.075L731.645 102.405C732.064 101.136 733.743 100.29 734.584 100.29H752.637" fill="white"/>
<path d="M473.441 100.289C475.12 100.289 476.8 101.558 476.8 103.674V223.851C476.8 225.544 475.12 227.237 473.441 227.237H456.227C454.548 227.237 452.869 225.544 452.869 223.428V104.097C452.869 101.982 454.548 100.712 456.227 100.712H474.28" fill="white"/>
<path d="M464.201 55.8569C473.019 55.8569 479.736 62.6274 479.736 71.5139C479.736 79.977 473.019 86.7476 464.201 86.7476C455.805 86.7476 449.507 79.977 449.507 71.5139C449.507 63.0507 455.805 55.8569 464.201 55.8569Z" fill="#B4A269"/>
<path d="M951.644 99.8662C961.301 99.8662 969.697 101.559 971.797 104.521C972.217 105.367 972.636 106.214 972.217 107.06L964.659 123.14C963.82 124.832 962.14 124.832 961.301 124.409C958.781 123.14 953.324 121.87 949.125 121.87C927.713 121.87 918.057 138.797 917.636 139.643L917.217 140.49V141.336V223.852C917.217 225.544 915.537 227.66 913.858 227.66H897.064C894.965 227.66 893.705 225.544 893.705 223.852V106.636C893.705 104.521 895.385 103.252 897.064 103.252H905.881C906.721 103.252 907.98 104.098 907.98 105.367L911.339 116.37L913.439 122.717L917.217 117.215C918.896 114.677 929.812 99.8662 951.644 99.8662Z" fill="white"/>
<path d="M819.391 99.0195C852.139 99.0195 876.91 123.14 876.91 154.876C876.91 156.992 876.491 160.378 876.491 162.493C876.07 164.609 874.81 165.455 873.131 165.455H783.704H779.925V168.841C780.765 186.613 795.46 206.079 821.491 206.079C835.345 206.079 847.101 200.155 852.559 196.347C853.399 195.923 854.238 195.5 854.658 195.076C855.498 194.654 856.757 194.654 857.597 195.923L866.414 207.348L866.833 207.772C867.673 209.041 867.254 210.31 866.414 211.157C862.215 214.542 845.841 226.39 819.391 226.39C782.864 226.39 755.994 199.309 755.994 162.493C756.415 126.525 783.704 99.0195 819.391 99.0195ZM782.025 152.337H785.384H849.619H852.979C852.979 152.337 852.979 143.028 846.681 133.719C839.963 123.563 828.208 117.639 818.552 117.639C800.078 117.639 791.681 126.948 786.643 134.141C781.605 141.758 781.606 152.337 782.025 152.337Z" fill="white"/>
</svg>
